<?xml version="1.0" standalone="no"?>
<!DOCTYPE svg PUBLIC "-//W3C//DTD SVG 20010904//EN"
 "http://www.w3.org/TR/2001/REC-SVG-20010904/DTD/svg10.dtd">
<svg version="1.0" xmlns="http://www.w3.org/2000/svg"
 width="2400.000000pt" height="2398.000000pt" viewBox="0 0 2400.000000 2398.000000"
 preserveAspectRatio="xMidYMid meet">

<g transform="translate(0.000000,2398.000000) scale(0.100000,-0.100000)"
fill="#000000" stroke="none">
<path d="M5342 12929 c-307 -40 -601 -227 -772 -491 -70 -108 -112 -204 -148
-337 -22 -84 -26 -116 -26 -261 0 -188 16 -273 80 -428 223 -539 607 -1017
1097 -1365 37 -26 67 -49 67 -51 0 -2 -21 -16 -46 -32 -51 -32 -99 -98 -115
-158 -6 -23 -9 -71 -7 -107 4 -54 13 -80 51 -151 52 -94 71 -108 144 -108 54
0 48 -11 -16 -29 -64 -18 -144 -102 -165 -171 -9 -30 -16 -75 -16 -102 0 -49
30 -155 55 -194 14 -22 109 -71 156 -81 32 -6 40 -23 12 -23 -37 0 -121 -49
-156 -91 -70 -81 -86 -221 -39 -321 12 -24 24 -55 27 -69 10 -41 57 -80 103
-86 l39 -5 12 -69 c16 -96 45 -168 102 -254 314 -470 1296 -730 2185 -580 263
44 458 104 660 200 164 78 267 147 371 248 131 127 203 257 218 394 l7 61 69
4 c79 4 113 28 129 87 5 20 16 63 24 97 31 118 13 219 -51 293 -36 42 -119 91
-155 91 -31 0 -20 15 20 27 140 42 170 66 184 140 32 180 17 255 -66 338 -36
37 -67 57 -97 66 -69 19 -69 29 0 29 58 0 66 3 97 34 19 19 34 44 34 55 0 12
10 41 21 64 51 98 31 243 -44 324 -54 58 -107 84 -185 91 -34 3 -61 8 -60 12
2 4 53 45 115 91 375 282 690 655 900 1065 130 254 178 395 192 566 48 591
-364 1104 -954 1188 -85 12 -3959 11 -4053 -1z m4023 -654 c156 -41 283 -168
325 -325 19 -71 14 -182 -11 -257 -50 -151 -209 -426 -346 -600 l-65 -81 -96
-7 c-54 -3 -209 -15 -347 -25 -682 -53 -785 -61 -845 -65 -36 -2 -184 -14
-330 -25 -350 -27 -713 -55 -1050 -80 -405 -30 -790 -60 -829 -63 -33 -3 -43
5 -166 127 -237 237 -456 569 -540 820 -70 208 14 427 206 539 100 59 -19 56
2094 56 1713 1 1948 -1 2000 -14z"/>
</g>
</svg>
